<svg width="63" height="25" viewBox="0 0 63 25" fill="none" xmlns="http://www.w3.org/2000/svg">
<path d="M32.8993 8.31119V10.1458H32.9549C33.5479 9.29334 34.2057 8.70034 34.9284 8.36678C35.6697 8.03322 36.5314 7.86644 37.5135 7.86644C39.4408 7.86644 40.8121 8.41311 41.6274 9.50645C42.4613 10.5998 42.8783 12.0267 42.8783 13.7871V22.5709H37.8193V15.6217C37.8193 15.5846 37.8193 15.5383 37.8193 15.4827C37.8193 15.4271 37.8193 15.3715 37.8193 15.3159C37.8193 15.1492 37.8193 14.9731 37.8193 14.7878C37.8193 14.6025 37.81 14.4172 37.7915 14.2319C37.7544 13.6574 37.5877 13.1293 37.2912 12.6475C36.9947 12.1471 36.4109 11.897 35.54 11.897C34.5208 11.897 33.8259 12.2305 33.4552 12.8976C33.0846 13.5462 32.8993 14.3153 32.8993 15.2048V22.5709H27.8403V8.31119H32.8993Z" fill="#D9D9D9"/>
<path d="M51.2766 8.31119V22.5709H46.2176V8.31119H51.2766ZM48.7471 0C49.5254 0.0185308 50.1925 0.305763 50.7484 0.861696C51.3044 1.41763 51.5823 2.08475 51.5823 2.86305C51.5823 3.64136 51.3044 4.30848 50.7484 4.86441C50.1925 5.42034 49.5254 5.69831 48.7471 5.69831C47.9688 5.69831 47.3016 5.42034 46.7457 4.86441C46.1898 4.30848 45.9118 3.64136 45.9118 2.86305C45.9118 2.08475 46.1898 1.41763 46.7457 0.861696C47.3016 0.305763 47.9688 0.0277963 48.7471 0.0277963V0Z" fill="#D9D9D9"/>
<path d="M60.1369 12.4807V22.5709H55.078V12.4807H53.438V8.31119H55.078V4.03051H60.1369V8.31119H63V12.4807H60.1369Z" fill="#D9D9D9"/>
<path d="M5.97595 16.8877H4.48196C3.29326 16.8877 2.15326 16.418 1.31274 15.582C0.472206 14.7459 0 13.6121 0 12.4297V1.06177H1.49399C2.68267 1.06177 3.82268 1.53145 4.6632 2.36749C5.50373 3.20353 5.97595 4.33744 5.97595 5.51978V16.8877Z" fill="#D9D9D9"/>
<path d="M22.6277 23.004L21.8808 24.2909L10.2337 17.6039C9.99744 17.4684 9.77415 17.3117 9.5666 17.1358C8.86885 16.6207 8.30206 15.9503 7.91151 15.1783C7.52097 14.4062 7.31754 13.5539 7.31754 12.6897C7.31754 11.8254 7.52097 10.9731 7.91151 10.2011C8.30206 9.42899 8.86885 8.75859 9.5666 8.24354C9.77415 8.06758 9.99744 7.9109 10.2337 7.77541L21.8778 1.08842L22.6248 2.3753C22.9194 2.88259 23.1106 3.44267 23.1875 4.02351C23.2643 4.60436 23.2253 5.19457 23.0726 5.76041C22.92 6.32625 22.6568 6.85662 22.298 7.32117C21.9391 7.78575 21.4917 8.17542 20.9814 8.46793L13.625 12.6919L20.9814 16.9159C22.0114 17.506 22.7635 18.479 23.0722 19.6208C23.381 20.7625 23.2211 21.9795 22.6277 23.004Z" fill="#D9D9D9"/>
</svg>
