<svg width="40" height="40" viewBox="0 0 40 40" fill="none" xmlns="http://www.w3.org/2000/svg">
<g id="knit logo 2 3" clip-path="url(#clip0_818_9189)">
<path id="Vector" d="M10.2904 27.2518H7.71779C5.6709 27.2518 3.70785 26.443 2.26049 25.0034C0.813124 23.5637 0 21.6112 0 19.5752V0H2.5726C4.61948 0 6.58253 0.808776 8.02989 2.24841C9.47726 3.68805 10.2904 5.64061 10.2904 7.67656V27.2518Z" fill="#1C213A"/>
<path id="Vector_2" d="M38.9643 37.7839L37.678 39.9998L17.6221 28.485C17.2153 28.2517 16.8308 27.9819 16.4734 27.679C15.2719 26.792 14.2959 25.6376 13.6234 24.3082C12.9509 22.9787 12.6006 21.5111 12.6006 20.0229C12.6006 18.5346 12.9509 17.067 13.6234 15.7376C14.2959 14.4081 15.2719 13.2537 16.4734 12.3668C16.8308 12.0638 17.2153 11.794 17.6221 11.5607L37.6729 0.0458984L38.9592 2.26187C39.4665 3.13541 39.7957 4.09985 39.9281 5.10004C40.0604 6.10024 39.9933 7.11657 39.7304 8.09093C39.4676 9.06529 39.0143 9.97857 38.3964 10.7785C37.7785 11.5785 37.0081 12.2495 36.1293 12.7532L30.7809 15.8238L23.4619 20.0267L30.7809 24.2296L36.1293 27.3003C37.9029 28.3165 39.198 29.992 39.7297 31.9581C40.2614 33.9241 39.986 36.0197 38.9643 37.7839Z" fill="#1C213A"/>
</g>
<defs>
<clipPath id="clip0_818_9189">
<rect width="40" height="40" fill="white"/>
</clipPath>
</defs>
</svg>
