<svg width="63" height="26" viewBox="0 0 63 26" fill="none" xmlns="http://www.w3.org/2000/svg">
<path d="M32.8993 9.16568V11.0003H32.9549C33.5479 10.1478 34.2057 9.55484 34.9284 9.22128C35.6697 8.88772 36.5314 8.72094 37.5135 8.72094C39.4408 8.72094 40.8121 9.2676 41.6274 10.3609C42.4613 11.4543 42.8783 12.8812 42.8783 14.6416V23.4254H37.8193V16.4762C37.8193 16.4391 37.8193 16.3928 37.8193 16.3372C37.8193 16.2816 37.8193 16.226 37.8193 16.1704C37.8193 16.0037 37.8193 15.8276 37.8193 15.6423C37.8193 15.457 37.81 15.2717 37.7915 15.0864C37.7544 14.5119 37.5877 13.9838 37.2912 13.502C36.9947 13.0016 36.4109 12.7514 35.54 12.7514C34.5208 12.7514 33.8259 13.085 33.4552 13.7521C33.0846 14.4007 32.8993 15.1698 32.8993 16.0592V23.4254H27.8403V9.16568H32.8993Z" fill="url(#paint0_linear_2584_39962)"/>
<path d="M51.2766 9.16568V23.4254H46.2176V9.16568H51.2766ZM48.7471 0.854492C49.5254 0.873023 50.1925 1.16025 50.7484 1.71619C51.3044 2.27212 51.5823 2.93924 51.5823 3.71754C51.5823 4.49585 51.3044 5.16297 50.7484 5.7189C50.1925 6.27483 49.5254 6.5528 48.7471 6.5528C47.9688 6.5528 47.3016 6.27483 46.7457 5.7189C46.1898 5.16297 45.9118 4.49585 45.9118 3.71754C45.9118 2.93924 46.1898 2.27212 46.7457 1.71619C47.3016 1.16025 47.9688 0.882288 48.7471 0.882288V0.854492Z" fill="url(#paint1_linear_2584_39962)"/>
<path d="M60.1369 13.3352V23.4254H55.078V13.3352H53.438V9.16568H55.078V4.885H60.1369V9.16568H63V13.3352H60.1369Z" fill="url(#paint2_linear_2584_39962)"/>
<path d="M5.97595 17.7422H4.48196C3.29326 17.7422 2.15326 17.2725 1.31274 16.4365C0.472206 15.6004 0 14.4665 0 13.2842V1.91626H1.49399C2.68267 1.91626 3.82268 2.38594 4.6632 3.22198C5.50373 4.05803 5.97595 5.19194 5.97595 6.37427V17.7422Z" fill="url(#paint3_linear_2584_39962)"/>
<path d="M22.6277 23.8585L21.8808 25.1454L10.2337 18.4584C9.99744 18.3229 9.77415 18.1662 9.5666 17.9903C8.86885 17.4752 8.30206 16.8048 7.91151 16.0328C7.52097 15.2607 7.31754 14.4084 7.31754 13.5442C7.31754 12.6799 7.52097 11.8276 7.91151 11.0556C8.30206 10.2835 8.86885 9.61308 9.5666 9.09803C9.77415 8.92207 9.99744 8.76539 10.2337 8.62991L21.8778 1.94291L22.6248 3.22979C22.9194 3.73708 23.1106 4.29716 23.1875 4.878C23.2643 5.45885 23.2253 6.04906 23.0726 6.6149C22.92 7.18075 22.6568 7.71111 22.298 8.17566C21.9391 8.64024 21.4917 9.02991 20.9814 9.32243L13.625 13.5464L20.9814 17.7704C22.0114 18.3605 22.7635 19.3335 23.0722 20.4753C23.381 21.617 23.2211 22.834 22.6277 23.8585Z" fill="url(#paint4_linear_2584_39962)"/>
<defs>
<linearGradient id="paint0_linear_2584_39962" x1="19.8486" y1="13.0139" x2="63" y2="13.0139" gradientUnits="userSpaceOnUse">
<stop stop-color="#4C38CB"/>
<stop offset="1" stop-color="#7038CB"/>
</linearGradient>
<linearGradient id="paint1_linear_2584_39962" x1="19.8486" y1="13.0139" x2="63" y2="13.0139" gradientUnits="userSpaceOnUse">
<stop stop-color="#4C38CB"/>
<stop offset="1" stop-color="#7038CB"/>
</linearGradient>
<linearGradient id="paint2_linear_2584_39962" x1="19.8486" y1="13.0139" x2="63" y2="13.0139" gradientUnits="userSpaceOnUse">
<stop stop-color="#4C38CB"/>
<stop offset="1" stop-color="#7038CB"/>
</linearGradient>
<linearGradient id="paint3_linear_2584_39962" x1="19.8486" y1="13.0139" x2="63" y2="13.0139" gradientUnits="userSpaceOnUse">
<stop stop-color="#4C38CB"/>
<stop offset="1" stop-color="#7038CB"/>
</linearGradient>
<linearGradient id="paint4_linear_2584_39962" x1="19.8486" y1="13.0139" x2="63" y2="13.0139" gradientUnits="userSpaceOnUse">
<stop stop-color="#4C38CB"/>
<stop offset="1" stop-color="#7038CB"/>
</linearGradient>
</defs>
</svg>
